<svg xmlns="http://www.w3.org/2000/svg" version="1.1" xmlns:xlink="http://www.w3.org/1999/xlink" xmlns:svgjs="http://svgjs.dev/svgjs" viewBox="0 0 2400 800"><g fill="#dbbd77" transform="matrix(1,0,0,1,9.9305419921875,333.2023696899414)"><path d="M-10,10C27.797619047619044,12.916666666666668,97.91666666666666,28.791666666666668,171.42857142857142,24C244.94047619047618,19.208333333333332,271.42857142857144,-16.958333333333332,342.85714285714283,-13C414.2857142857142,-9.041666666666668,442.8571428571428,40.916666666666664,514.2857142857142,43C585.7142857142857,45.083333333333336,614.2857142857142,-2.375,685.7142857142857,-3C757.1428571428571,-3.625,785.7142857142857,44.375,857.1428571428571,40C928.5714285714286,35.625,957.142857142857,-22.125,1028.5714285714284,-24C1099.9999999999998,-25.875,1128.5714285714287,29.125,1200,31C1271.4285714285713,32.875,1300,-15.625,1371.4285714285713,-15C1442.8571428571427,-14.375,1471.4285714285713,34.208333333333336,1542.8571428571427,34C1614.285714285714,33.791666666666664,1642.857142857143,-17.458333333333332,1714.2857142857142,-16C1785.7142857142856,-14.541666666666666,1814.2857142857142,39.541666666666664,1885.7142857142856,41C1957.1428571428569,42.458333333333336,1985.7142857142856,-10.875,2057.142857142857,-9C2128.5714285714284,-7.125,2157.142857142857,51.25,2228.5714285714284,50C2300,48.75,2312.2023809523807,-87.91666666666667,2400,-15C2487.7976190476193,57.91666666666667,3254.1666666666665,209.375,2650,400C2045.8333333333335,590.625,156.25,795.8333333333334,-500,900" transform="matrix(1,0,0,1,0,35)" opacity="NaN"></path></g></svg>