<?xml version="1.0" encoding="UTF-8"?>
<svg version="1.1" xmlns="http://www.w3.org/2000/svg" width="897" height="278">
<path d="M0 0 C1.93074421 1.9133892 3.41332451 3.77865432 5 6 C5.34289062 5.57589844 5.68578125 5.15179688 6.0390625 4.71484375 C12.29684477 -2.2981881 22.52507116 -8.25679484 32.04296875 -9.203125 C37.89788938 -9.33110141 42.61454083 -8.27276258 48 -6 C48.63035156 -5.74476562 49.26070313 -5.48953125 49.91015625 -5.2265625 C55.34904057 -2.62067946 58.31325763 1.7073871 61 7 C62.2800594 11.36726149 62.20841322 13.35282212 60.8125 17.6875 C58.74476709 21.46646015 57.00904774 24.12104161 53 25.875 C50.25025665 26.04685896 49.14076349 25.77166634 47 24 C45.9375 20.6875 45.9375 20.6875 46 17 C48.4375 14.0625 48.4375 14.0625 51 12 C48.45395403 8.47618313 48.45395403 8.47618313 45 6 C39.61419253 5.33088746 35.09547202 5.6463421 30.50390625 8.671875 C26.78809454 11.95337106 25.32251982 15.79592601 24.0625 20.5 C23.98417766 24.88605108 24.73095426 27.24189299 27 31 C33.51609523 35.63645238 39.99583982 37.30395545 48 37 C56.65858716 35.44063359 64.59485772 32.44613331 72.625 28.9375 C84.11416392 23.95813734 94.55161384 19.99040745 107 24 C112.57049382 26.33336319 118.03342391 29.10423222 123.12109375 32.35546875 C125.05608622 33.23867799 125.05608622 33.23867799 127.19140625 32.20703125 C128.36509766 31.51673828 128.36509766 31.51673828 129.5625 30.8125 C141.38887711 24.55750864 156.52103102 21.88604928 169.63232422 25.78222656 C174.30056616 27.56732654 178.74533589 29.72710825 183.11328125 32.15209961 C186.45564689 33.65417465 188.89629106 34.3456014 192.45678711 33.23071289 C193.3050708 32.8155542 194.15335449 32.40039551 195.02734375 31.97265625 C195.97697998 31.5142334 196.92661621 31.05581055 197.9050293 30.58349609 C198.90574463 30.08156738 199.90645996 29.57963867 200.9375 29.0625 C202.49174683 28.30187256 202.49174683 28.30187256 204.07739258 27.52587891 C209.56057756 24.81490797 214.91960215 21.98154741 220.1875 18.875 C242.73320074 5.61442481 272.22233692 -6.61142872 298.8203125 -1.2265625 C317.78876204 3.74865184 334.68812749 15.57729974 350.86669922 26.22900391 C367.91675155 37.45237358 386.16732471 41.83228222 406.3125 37.75 C421.02916452 34.14150712 434.38981681 28.16032943 445.328125 17.46875 C447 16 447 16 449 16 C448.17808903 22.08214115 442.5292972 25.43288511 438 29 C433.78000085 31.88195064 429.44656695 34.48432441 425 37 C424.16726563 37.4846875 423.33453125 37.969375 422.4765625 38.46875 C406.19193427 47.34143781 385.88651794 49.33633474 368 45 C359.49720521 41.93878415 351.48190341 37.82913297 343.5 33.625 C342.46230469 33.08617187 341.42460938 32.54734375 340.35546875 31.9921875 C335.0648811 29.22500591 329.86202986 26.35976607 324.72265625 23.3203125 C320.22610136 20.67238214 315.73932677 18.288747 310.9375 16.25 C310.26122559 15.9605249 309.58495117 15.6710498 308.88818359 15.37280273 C286.80710963 6.12559923 265.5412374 11.24635827 244 20 C236.5044736 23.34322387 229.24549838 27.1515628 222 31 C219.26737323 32.44544351 216.53466992 33.89073669 213.80126953 35.3347168 C212.1350058 36.2182352 210.47176245 37.10748019 208.81201172 38.00317383 C208.0748291 38.39786865 207.33764648 38.79256348 206.578125 39.19921875 C205.93262695 39.54815186 205.28712891 39.89708496 204.62207031 40.2565918 C203 41 203 41 201 41 C201 41.66 201 42.32 201 43 C201.78375 43.2475 202.5675 43.495 203.375 43.75 C207.19068774 45.06575439 210.90306686 46.5581195 214.6328125 48.09765625 C228.41541539 53.35142072 242.97972954 47.42093558 255.75317383 41.89941406 C263.30289729 38.50132888 270.39154959 34.44627395 277.52319336 30.25683594 C288.34468218 23.95170717 300.48907617 17.20874932 313.4296875 19.4140625 C318.88562294 20.9387852 323.36839226 23.61524634 327 28 C329.79795283 34.44745653 330.02270062 41.58172428 327.8125 48.25 C325.01201749 54.73735627 320.05190301 58.11033703 313.81640625 61.046875 C307.40541069 63.21647682 300.69186247 63.12070528 294.5 60.3125 C290.61223117 57.99277099 287.75252304 55.57112039 286.4375 51.078125 C285.78553185 47.46513484 285.76173583 45.52191198 287.3125 42.125 C289 40 289 40 291 38 C295.55555556 38.55555556 295.55555556 38.55555556 297 40 C297.25 42.375 297.25 42.375 297 45 C295.5 46.8125 295.5 46.8125 294 48 C295.63761818 49.9823799 296.8118547 50.93205864 299.25 51.8125 C302.97034766 52.06616007 305.56115739 51.4274441 309 50 C311.47901806 46.443148 311.30260221 42.30341394 311.4609375 38.0859375 C311.16315773 35.85079566 311.16315773 35.85079566 309.2578125 34.2578125 C305.20497661 32.00000427 301.50087542 32.41267021 297 33 C288.39904648 35.90151717 280.35568742 40.28237681 272.3125 44.4375 C254.43327093 53.51599965 233.42269574 63.7151888 213 57.4375 C207.30740146 55.33305533 202.07251105 52.4986062 196.8125 49.48828125 C192.83407562 47.38303168 191.33664296 46.61276417 186.92578125 47.890625 C185.73339844 48.33921875 184.54101562 48.7878125 183.3125 49.25 C164.06996616 56.07738304 143.88552103 57.74800111 124.75390625 49.62109375 C122.96168874 48.76754104 121.18340716 47.88321274 119.4296875 46.953125 C116.49842307 45.80323992 114.12113046 45.83715841 111 46 C111 45.01 111 44.02 111 43 C95.28936051 37.21761186 84.78870667 40.57400475 69.6875 47 C60.51456549 50.77832853 51.92589264 53.92795315 42 55 C40.67935547 55.14888672 40.67935547 55.14888672 39.33203125 55.30078125 C25.70801712 56.05887425 14.42075132 48.91784569 4 41 C4 41.66 4 42.32 4 43 C-5.36364482 51.08859531 -16.35311311 55.48628655 -28.70703125 55.2578125 C-42.31754165 54.19222094 -54.72327663 48.99081675 -67.20288086 43.79760742 C-79.12188264 38.89704507 -87.18993526 37.97457493 -99.35253906 42.96533203 C-102.01225714 44.10861535 -104.66358042 45.26942221 -107.3125 46.4375 C-130.94566853 56.81319031 -151.87265784 56.91688058 -175.97387695 47.89404297 C-181.41708758 45.91384844 -181.41708758 45.91384844 -187 47 C-189.78370383 48.36467097 -192.48274661 49.8611143 -195.1875 51.375 C-210.09646375 59.43197606 -222.45520218 60.94682364 -238.98046875 56.24609375 C-249.47104916 53.07055314 -258.98620003 48.57329068 -268.625 43.4375 C-284.39808371 34.26998756 -284.39808371 34.26998756 -302 33 C-304.29490085 34.18970352 -304.29490085 34.18970352 -306 36 C-306.47848444 40.23800505 -306.43490796 42.84877305 -304.9375 46.8125 C-302.2431574 49.85449971 -299.88884292 50.87948594 -296 52 C-292.64612267 51.55051021 -292.64612267 51.55051021 -290 50 C-289.67 49.01 -289.34 48.02 -289 47 C-289.515625 46.608125 -290.03125 46.21625 -290.5625 45.8125 C-291.036875 45.214375 -291.51125 44.61625 -292 44 C-291.6875 41.3125 -291.6875 41.3125 -291 39 C-288.8125 38.1875 -288.8125 38.1875 -286 38 C-283.1875 39.9375 -283.1875 39.9375 -281 43 C-280.30653821 47.85423251 -280.43291218 49.90783086 -282.6875 54.25 C-286.92440384 59.28848024 -290.1759351 61.60750067 -296.6640625 62.2734375 C-305.15627584 62.56472714 -311.34853943 60.97593725 -317.8828125 55.390625 C-322.68422505 50.33406493 -323.70863875 45.26324599 -324.3125 38.5 C-324.04092162 35.45832218 -323.56930961 33.56224722 -322.48046875 30.78125 C-322.20485107 30.07033203 -321.9292334 29.35941406 -321.64526367 28.62695312 C-321.32585815 27.82161133 -321.32585815 27.82161133 -321 27 C-321.88969482 27.49814209 -321.88969482 27.49814209 -322.79736328 28.00634766 C-348.52600472 42.36200341 -369.5448201 51.52186725 -399.1875 43.4375 C-411.63084792 39.41435025 -423.33201425 32.80133364 -433 24 C-433.56460937 23.50371094 -434.12921875 23.00742188 -434.7109375 22.49609375 C-436.125 21.1875 -436.125 21.1875 -438 19 C-438 18.01 -438 17.02 -438 16 C-434.67692289 17.48703907 -432.15596733 19.41290042 -429.375 21.75 C-419.94762618 29.33855564 -410.54625958 33.66692942 -399 37 C-398.14664063 37.24878906 -397.29328125 37.49757812 -396.4140625 37.75390625 C-374.90796762 43.0019806 -355.93604124 35.88585772 -337.6953125 24.8828125 C-334.38258075 22.86079206 -331.09054808 20.80755084 -327.8046875 18.7421875 C-302.02760627 2.54738441 -281.78793746 -5.87132261 -251 1 C-228.9824173 6.45563756 -207.55773818 19.3573647 -187.73803711 30.07714844 C-187.16448486 30.38168945 -186.59093262 30.68623047 -186 31 C-185.30479248 31.37213623 -184.60958496 31.74427246 -183.89331055 32.12768555 C-182.06971384 33.15637317 -182.06971384 33.15637317 -180.1796875 32.84765625 C-177.7080783 31.8864749 -175.42189586 30.65489092 -173.07788086 29.42089844 C-160.75185609 23.2139691 -146.69211789 22.68543479 -133.47631836 26.60205078 C-129.02698837 28.10843193 -124.8833929 29.93064953 -120.875 32.375 C-118.21903596 34.2243683 -118.21903596 34.2243683 -115.73046875 33.84375 C-112.29155121 32.7810802 -109.46747693 31.01209829 -106.4375 29.125 C-97.09956969 23.60769014 -88.80347934 20.87911921 -77.92578125 23.20703125 C-70.68551514 25.16934636 -63.96652727 28.01257136 -57.125 31.0625 C-45.14506725 36.2568726 -33.98569493 39.16904325 -21.53515625 34.25390625 C-17.59930003 32.30720387 -16.12999755 30.89275414 -14 27 C-12.63230575 20.90858863 -14.27950904 16.07881654 -17.5234375 10.88671875 C-20.23121052 7.42678655 -22.90339288 6.32806622 -27.171875 5.66015625 C-31.49994748 5.36241972 -34.17412167 5.68035657 -37.5625 8.5 C-38.366875 9.325 -39.17125 10.15 -40 11 C-38.6910428 14.12197478 -38.6910428 14.12197478 -36 16 C-35.0625 18.25 -35.0625 18.25 -35 21 C-37.4375 23.8125 -37.4375 23.8125 -40 26 C-43.79144791 25.13830729 -45.67853578 24.35621711 -48.3125 21.4375 C-50.69064966 16.59312106 -51.87961385 12.17702634 -50.40625 6.85546875 C-47.56709127 0.45512386 -42.71084097 -3.94135638 -36.375 -6.8125 C-23.13964785 -11.46938317 -11.10541422 -8.19638536 0 0 Z M-306 18 C-303.14301146 19.57783685 -300.7164323 20.32467443 -297.5 20.8125 C-287.04997118 22.83263638 -278.09381427 27.95661765 -268.92260742 33.1237793 C-241.67280699 48.95927811 -241.67280699 48.95927811 -211.25 49.875 C-205.22975033 47.91818479 -199.44728037 45.22170289 -194 42 C-193.505 41.01 -193.505 41.01 -193 40 C-193.49701416 39.73896484 -193.99402832 39.47792969 -194.50610352 39.20898438 C-196.00155258 38.42333615 -197.49681536 37.63733329 -198.99194336 36.85107422 C-200.72521555 35.94007333 -202.45911676 35.03026833 -204.19360352 34.12158203 C-208.11633849 32.06274969 -212.03197852 29.99894863 -215.8984375 27.8359375 C-243.61715257 12.39498046 -276.46204985 1.03139034 -306 18 Z M-172 37 C-162.72800106 43.18133263 -146.71917494 44.29238279 -136 43 C-127.82282627 41.35403933 -127.82282627 41.35403933 -121 37 C-129.14735069 30.09848206 -140.95182598 29.25525716 -151.22265625 29.67578125 C-159.10850636 30.35264326 -165.73387332 32.08871152 -172 37 Z M129 35 C129 35.66 129 36.32 129 37 C147.29996773 44.58509729 161.08085418 43.26346948 180 39 C165.3067686 27.58999066 145.5175652 26.7412174 129 35 Z " fill="#010101" transform="translate(443,111)"/>
</svg>
