<?xml version="1.0" encoding="UTF-8"?>
<svg version="1.1" xmlns="http://www.w3.org/2000/svg" width="897" height="278">
<path d="M0 0 C5.78064498 3.01317736 9.51870764 8.04859987 12.74609375 13.53515625 C15.11678565 21.5691677 14.88617893 29.91231333 10.87109375 37.34765625 C5.80785264 46.03540329 5.80785264 46.03540329 1.87109375 47.34765625 C1.54109375 48.33765625 1.21109375 49.32765625 0.87109375 50.34765625 C0.21109375 50.67765625 -0.44890625 51.00765625 -1.12890625 51.34765625 C-1.12890625 52.00765625 -1.12890625 52.66765625 -1.12890625 53.34765625 C10.60591142 59.54579586 20.55741267 62.58446085 33.87109375 62.34765625 C33.37609375 61.62578125 32.88109375 60.90390625 32.37109375 60.16015625 C29.77625164 54.95805653 30.24586716 48.9818821 30.87109375 43.34765625 C33.55758886 37.07916765 38.98897482 34.28871572 44.87109375 31.34765625 C50.47837192 30.97383771 54.03881913 31.16274798 58.87109375 34.34765625 C62.42036161 38.19269643 64.63221806 41.3172129 65.24609375 46.53515625 C64.5890996 53.21459676 62.39479907 58.37812247 57.24609375 62.78515625 C56.12494768 63.64437518 55.00044547 64.49925163 53.87109375 65.34765625 C53.21109375 66.00765625 52.55109375 66.66765625 51.87109375 67.34765625 C72.46154615 71.94845331 94.23170235 63.48214537 113.78491211 57.55883789 C137.06388656 50.56680184 164.17883821 45.1693438 186.87109375 57.34765625 C190.85304941 59.94309905 194.70643194 62.77652411 197.87109375 66.34765625 C197.87109375 67.00765625 197.87109375 67.66765625 197.87109375 68.34765625 C195.0091132 67.36640578 192.9221926 66.38908775 190.55859375 64.47265625 C184.57002491 59.73750879 178.41334473 57.68912206 170.93359375 56.59765625 C170.18658203 56.47261719 169.43957031 56.34757812 168.66992188 56.21875 C148.41511466 53.03809865 129.12156138 59.1704888 110.03369141 65.33984375 C102.04119515 67.88678096 93.9689631 70.16186971 85.87109375 72.34765625 C84.61296875 72.68925781 83.35484375 73.03085938 82.05859375 73.3828125 C68.94176332 76.58749266 56.28818261 77.09459886 43.87109375 71.34765625 C40.80565968 70.32584489 38.79458286 70.4512988 35.62988281 70.76904297 C20.31123334 72.27490738 5.13111656 68.46588358 -7.3125 59.16796875 C-10.76304601 57.60965765 -13.76603512 59.21275468 -17.14453125 60.46875 C-19.29093609 61.34234714 -21.43677562 62.21733459 -23.58203125 63.09375 C-39.45842364 68.70643938 -57.39524978 68.06409864 -73.12890625 62.34765625 C-74.26070312 61.94675781 -75.3925 61.54585937 -76.55859375 61.1328125 C-88.77793824 56.35313694 -99.25034985 48.77338931 -109.9375 41.2890625 C-110.94240479 40.58571777 -111.94730957 39.88237305 -112.98266602 39.15771484 C-114.94247254 37.78086168 -116.89769356 36.39744932 -118.84741211 35.00634766 C-125.05059936 30.62409426 -131.39494549 26.85403282 -138.12890625 23.34765625 C-138.86423584 22.95126953 -139.59956543 22.55488281 -140.35717773 22.14648438 C-152.3844799 15.67898794 -167.00649595 13.01687646 -180.25390625 16.84765625 C-186.28622021 19.03692946 -190.95220853 22.47484224 -195.12890625 27.34765625 C-195.12890625 28.00765625 -195.12890625 28.66765625 -195.12890625 29.34765625 C-194.44489746 29.3319458 -193.76088867 29.31623535 -193.05615234 29.30004883 C-154.81723561 28.53809967 -154.81723561 28.53809967 -142.0859375 40.22265625 C-137.70692625 45.21535316 -136.74652229 48.29905248 -136.8671875 54.75 C-137.26451371 58.69361094 -138.42804115 61.51521054 -141.12890625 64.34765625 C-151.69947305 72.43432661 -163.28466687 73.50740698 -176.12890625 72.34765625 C-186.62907089 70.49592381 -195.71287055 66.92004212 -202.50390625 58.47265625 C-207.11298552 51.73827932 -208.27997469 46.40463956 -208.12890625 38.34765625 C-222.38054981 42.79584365 -234.7442557 48.51781382 -246.12890625 58.34765625 C-245.56300781 59.311875 -244.99710937 60.27609375 -244.4140625 61.26953125 C-243.67291936 62.54542324 -242.93204818 63.82147324 -242.19140625 65.09765625 C-241.81822266 65.731875 -241.44503906 66.36609375 -241.06054688 67.01953125 C-236.50256324 74.90361106 -236.45467571 82.41641059 -237.12890625 91.34765625 C-238.84592797 97.74422941 -242.31943383 102.71377586 -247.12890625 107.22265625 C-249.12890625 108.34765625 -249.12890625 108.34765625 -251.06640625 108.34765625 C-256.41362723 105.75506426 -259.83834428 100.69230085 -262.12890625 95.34765625 C-264.79139788 87.60594981 -264.35366016 80.17265278 -262.12890625 72.34765625 C-260.77888121 69.58760505 -259.30128735 67.09933265 -257.56640625 64.56640625 C-256.05839852 62.23882911 -255.08050316 59.94624781 -254.12890625 57.34765625 C-261.85653596 49.66802424 -276.72889863 38.34765625 -288.12890625 38.34765625 C-288.14308594 39.09789062 -288.15726562 39.848125 -288.171875 40.62109375 C-288.63608794 50.58285257 -291.53296079 57.83694463 -298.12890625 65.34765625 C-311.63819966 76.19568652 -327.35559339 78.14086646 -344.12890625 76.34765625 C-352.36406373 74.81983271 -359.72560462 70.77619973 -365.12890625 64.34765625 C-368.21838737 59.13415686 -369.02063823 54.28228634 -368.12890625 48.34765625 C-366.1627266 41.6824309 -361.78686271 37.19153655 -356.12890625 33.34765625 C-339.57923211 24.52116337 -320.16292207 24.34198695 -302.12890625 27.34765625 C-301.46890625 27.67765625 -300.80890625 28.00765625 -300.12890625 28.34765625 C-306.32739482 19.09688164 -312.72936416 14.02105996 -323.578125 11.04296875 C-345.51324878 6.74764198 -364.64561186 16.47793736 -382.31640625 28.28515625 C-386.44814249 31.08442724 -390.54399372 33.93376028 -394.62890625 36.80078125 C-415.35046404 51.32618695 -437.50012756 64.89494222 -463.91333008 60.4753418 C-471.87288384 59.03736099 -480.08932332 57.35354922 -487.11328125 53.1640625 C-489.85615176 52.05309363 -491.33506107 52.45850739 -494.12890625 53.34765625 C-496.20704282 54.56327883 -496.20704282 54.56327883 -498.19140625 56.09765625 C-509.01980741 63.59285572 -520.56415843 66.75207037 -533.56640625 66.16015625 C-540.30458858 65.98822048 -545.22717756 66.33920077 -551.0234375 70.15625 C-563.58488768 77.26430623 -584.30861125 70.61842957 -597.12890625 67.34765625 C-602.07340645 65.9115991 -606.97715675 64.36029259 -611.87890625 62.78515625 C-635.2257626 55.29558439 -662.44754038 48.33604992 -685.75390625 60.06640625 C-691.13067203 63.10275591 -691.13067203 63.10275591 -695.82421875 67.0625 C-697.12890625 68.34765625 -697.12890625 68.34765625 -699.12890625 68.34765625 C-697.08521528 61.96522027 -692.75814319 59.57174084 -687.12890625 56.34765625 C-659.66991186 43.57369183 -632.95529669 50.64774825 -605.03926086 57.99464417 C-603.00678278 58.52951642 -600.97414853 59.06378895 -598.94140625 59.59765625 C-598.27756927 59.77215302 -597.6137323 59.94664978 -596.92977905 60.12643433 C-583.13420796 63.7377882 -569.44992923 67.04235557 -555.12890625 64.34765625 C-554.13890625 63.68765625 -553.14890625 63.02765625 -552.12890625 62.34765625 C-552.59941406 62.00734375 -553.06992187 61.66703125 -553.5546875 61.31640625 C-558.29241824 57.62823491 -560.97720318 54.32211593 -562.12890625 48.34765625 C-562.12890625 42.80070642 -559.80593107 40.20404813 -556.12890625 36.34765625 C-552.91251147 34.73945886 -549.61746458 34.87904394 -546.12890625 35.34765625 C-541.82147866 37.58420519 -538.48852247 40.08219616 -536.12890625 44.34765625 C-535.62527604 49.1782502 -535.58703769 53.72205058 -537.12890625 58.34765625 C-523.12160493 57.2943575 -510.38927386 55.51307175 -499.12890625 46.34765625 C-499.52722656 45.8165625 -499.92554688 45.28546875 -500.3359375 44.73828125 C-501.93359375 42.60807292 -503.53125 40.47786458 -505.12890625 38.34765625 C-505.93328125 37.32671875 -505.93328125 37.32671875 -506.75390625 36.28515625 C-510.18225772 31.45429736 -511.00207806 25.12827468 -510.12890625 19.34765625 C-508.15818837 13.08148144 -504.40868392 9.10592163 -499.12890625 5.34765625 C-495.9017929 3.73409958 -492.62778177 3.89843353 -489.12890625 4.34765625 C-483.74792861 6.24236669 -480.89289387 9.35121709 -478.12890625 14.34765625 C-475.86511777 21.13902169 -476.32787095 28.97908527 -479.1953125 35.5234375 C-480.73716639 38.5361813 -482.37830311 41.45010623 -484.12890625 44.34765625 C-466.46694137 51.70446833 -449.48254175 54.24410198 -431.12890625 47.34765625 C-417.01564552 41.31081914 -404.57778486 32.79986145 -392.19970703 23.83642578 C-387.96454178 20.79162058 -383.62896829 17.98260218 -379.12890625 15.34765625 C-378.52578613 14.99364746 -377.92266602 14.63963867 -377.30126953 14.27490234 C-359.74433991 4.1054311 -340.47233497 -2.91995602 -319.96484375 2.26953125 C-309.06672207 5.86334439 -300.85950039 12.041345 -294.12890625 21.34765625 C-293.52026268 22.91383111 -292.9551574 24.49784049 -292.44140625 26.09765625 C-291.20680625 29.21919948 -290.50631293 30.14805005 -287.4921875 31.7421875 C-285.26299263 32.5462035 -283.02094044 33.31515511 -280.76953125 34.0546875 C-270.80052522 37.59518213 -262.29425811 43.61615405 -254.3359375 50.46484375 C-252.07403755 52.46946572 -252.07403755 52.46946572 -249.12890625 54.34765625 C-248.11183594 53.47753906 -248.11183594 53.47753906 -247.07421875 52.58984375 C-235.22502582 42.64439927 -221.85067008 34.0631247 -206.12890625 32.34765625 C-205.75765625 31.04828125 -205.75765625 31.04828125 -205.37890625 29.72265625 C-201.81531105 20.10094922 -194.87290497 13.80340187 -185.8515625 9.390625 C-169.38647322 3.08333829 -153.34630135 6.28847062 -137.58203125 12.81640625 C-126.49858026 18.02613898 -116.5972634 25.21553279 -106.53466797 32.13037109 C-84.60817976 47.15728141 -63.60523203 60.20727649 -35.9453125 56.09375 C-30.18597598 54.96782034 -24.66713803 53.27156139 -19.12890625 51.34765625 C-19.12890625 47.65539775 -20.4097173 46.7642607 -22.75390625 44.09375 C-29.37857467 35.68117391 -29.73380931 26.71243752 -29.12890625 16.34765625 C-28.12751719 10.06894686 -24.96994759 6.77472326 -20.1640625 2.79296875 C-14.14498123 -1.48161871 -7.130015 -2.18479359 0 0 Z M-18.12890625 11.34765625 C-21.65338815 16.56006774 -22.8145697 21.51765343 -21.875 27.7265625 C-19.91024496 34.62892184 -15.89975987 41.02631952 -11.12890625 46.34765625 C-6.86406111 45.85555873 -3.99571104 43.34829223 -1.12890625 40.34765625 C3.98647204 33.58253878 7.06633155 27.9859658 5.87109375 19.34765625 C4.14598197 14.6184705 2.10598965 11.23355983 -2.00390625 8.28515625 C-8.56420843 6.3170656 -12.97003888 6.64735487 -18.12890625 11.34765625 Z M-499.12890625 15.34765625 C-501.40163834 18.68099664 -502.12890625 20.67793406 -502.12890625 24.72265625 C-500.52026874 30.55396724 -497.51242588 35.19484818 -493.12890625 39.34765625 C-490.03329497 38.658028 -490.03329497 38.658028 -488.77734375 36.30859375 C-485.23539483 29.16761821 -485.23539483 29.16761821 -484.12890625 21.34765625 C-485.64038745 17.21097085 -487.25034437 14.52934731 -491.12890625 12.34765625 C-494.84143789 12.34765625 -496.17363691 13.13120425 -499.12890625 15.34765625 Z M-341.12890625 34.34765625 C-342.06863281 34.61578125 -343.00835937 34.88390625 -343.9765625 35.16015625 C-350.60135217 37.30006139 -356.58174617 40.10814575 -360.28125 46.265625 C-361.79310615 49.97907812 -361.86437169 53.42517392 -361.12890625 57.34765625 C-357.63880198 64.14207977 -351.24267689 66.68734111 -344.32421875 68.93359375 C-331.42149442 71.36720368 -317.33713782 69.23511695 -306.32421875 62.08203125 C-300.71084361 57.64726513 -297.4148986 52.42061417 -296.12890625 45.34765625 C-295.9367102 41.5678006 -295.75292823 37.9251991 -297.12890625 34.34765625 C-307.97854314 28.92283781 -329.84102189 31.08547621 -341.12890625 34.34765625 Z M-200.12890625 37.34765625 C-200.68053552 43.96720749 -200.0278596 48.85895108 -196.12890625 54.34765625 C-190.3356558 61.16417105 -181.75533792 63.94335342 -173.12890625 65.34765625 C-162.93383914 66.0975056 -153.22223974 65.02465638 -145.12890625 58.34765625 C-143.1757329 55.80003884 -143.11641564 54.6411857 -143.25390625 51.41015625 C-144.52228451 46.97083235 -146.23935383 44.59379943 -150.125 42.03125 C-161.15358058 35.96462522 -172.427672 35.09122637 -184.75390625 35.03515625 C-186.33776123 35.02681763 -186.33776123 35.02681763 -187.95361328 35.01831055 C-194.31835916 35.01031307 -194.31835916 35.01031307 -200.12890625 37.34765625 Z M37.43359375 44.16015625 C35.68054429 50.97757083 37.48891587 55.53453802 40.87109375 61.34765625 C46.71868651 60.98964037 50.67552 59.55404333 54.87109375 55.34765625 C56.9879292 51.70934532 57.87109375 49.36326925 57.87109375 45.16015625 C56.57244447 41.50770515 55.21398759 40.27910603 51.87109375 38.34765625 C46.16904147 37.35599498 41.05131753 39.59867844 37.43359375 44.16015625 Z M-555.12890625 45.34765625 C-554.28533337 49.73423525 -553.71622778 51.84970974 -550.25390625 54.78515625 C-547.11493083 56.64579865 -547.11493083 56.64579865 -543.12890625 56.34765625 C-541.92114419 52.72437006 -541.72849733 50.15154098 -542.12890625 46.34765625 C-544.57906831 43.61747567 -546.1301207 42.51412051 -549.75390625 41.91015625 C-552.50637134 42.41718929 -553.41648712 43.18460051 -555.12890625 45.34765625 Z M-250.12890625 61.34765625 C-256.64438871 68.43049813 -260.5699414 76.10392805 -261.3203125 85.828125 C-260.96809131 91.85857872 -258.45830286 97.36739539 -255.12890625 102.34765625 C-252.54859256 104.49117628 -252.54859256 104.49117628 -250.12890625 105.34765625 C-244.06502773 101.0753782 -241.43855826 96.43331223 -239.59375 89.26953125 C-237.97832954 79.83696121 -242.36042972 71.2344495 -247.12890625 63.34765625 C-248.11890625 62.68765625 -249.10890625 62.02765625 -250.12890625 61.34765625 Z " fill="#010101" transform="translate(699.12890625,89.65234375)"/>
</svg>
